<svg xmlns="http://www.w3.org/2000/svg" viewBox="0 0 87 87" width="87" height="87">
	<style>
		tspan { white-space:pre }
		.shp0 { fill: #f5c506 } 
	</style>
	<g id="bnner+header">
		<g id="logo ">
			<path id="Shape 8 copy 3" class="shp0" d="M1.99 57L15.07 43.5L1.99 30L13.09 30L26.17 43.5L13.09 57L1.99 57ZM18.83 57L31.91 43.5L18.83 30L29.93 30L43.01 43.5L29.93 57L18.83 57ZM85.01 57L71.93 43.5L85.01 30L73.91 30L60.83 43.5L73.91 57L85.01 57ZM68.17 57L55.09 43.5L68.17 30L57.07 30L43.99 43.5L57.07 57L68.17 57ZM30 1.99L43.5 15.07L57 1.99L57 13.09L43.5 26.17L30 13.09L30 1.99ZM30 18.83L43.5 31.91L57 18.83L57 29.93L43.5 43.01L30 29.93L30 18.83ZM30 85.01L43.5 71.93L57 85.01L57 73.91L43.5 60.83L30 73.91L30 85.01ZM30 68.17L43.5 55.09L57 68.17L57 57.07L43.5 43.99L30 57.07L30 68.17Z" />
		</g>
	</g>
</svg>