<svg xmlns="http://www.w3.org/2000/svg" viewBox="0 0 32 42" width="32" height="42">
	<style>
		tspan { white-space:pre }
		.shp0 { opacity: 0.502;fill: #f5c506 } 
		.shp1 { fill: #f5c506 } 
	</style>
	<g id="footer">
		<g id="logo_copy">
			<path id="Shape 8 copy 4" class="shp0" d="M1.81 8.32L8.77 8.06L8.72 1.04L11.7 3.9L11.74 10.92L4.78 11.19L1.81 8.32ZM6.32 12.67L13.28 12.4L13.24 5.38L16.21 8.25L16.26 15.27L9.29 15.53L6.32 12.67ZM24.05 29.75L24.01 22.73L30.97 22.47L28 19.6L21.03 19.87L21.08 26.89L24.05 29.75ZM19.54 25.41L19.49 18.39L26.46 18.12L23.49 15.26L16.52 15.52L16.57 22.54L19.54 25.41ZM23.41 0.71L23.67 7.72L30.64 7.67L27.8 10.67L20.83 10.72L20.57 3.7L23.41 0.71ZM19.09 5.25L19.36 12.27L26.33 12.22L23.48 15.22L16.52 15.26L16.25 8.25L19.09 5.25ZM2.13 23.12L9.1 23.07L9.37 30.08L12.21 27.09L11.95 20.07L4.98 20.12L2.13 23.12ZM6.45 18.57L13.42 18.52L13.68 25.54L16.53 22.54L16.26 15.53L9.29 15.58L6.45 18.57Z" />
			<path id="Shape 8 copy 3" class="shp1" d="M1 30.54L5.85 25.5L1 20.46L5.11 20.46L9.96 25.5L5.11 30.54L1 30.54ZM7.24 30.54L12.09 25.5L7.24 20.46L11.36 20.46L16.21 25.5L11.36 30.54L7.24 30.54ZM31.78 30.54L26.93 25.5L31.78 20.46L27.67 20.46L22.82 25.5L27.67 30.54L31.78 30.54ZM25.54 30.54L20.69 25.5L25.54 20.46L21.42 20.46L16.57 25.5L21.42 30.54L25.54 30.54ZM11.38 10L16.39 14.88L21.39 10L21.39 14.14L16.39 19.03L11.38 14.14L11.38 10ZM11.38 16.29L16.39 21.17L21.39 16.29L21.39 20.43L16.39 25.32L11.38 20.43L11.38 16.29ZM11.38 41L16.39 36.12L21.39 41L21.39 36.86L16.39 31.97L11.38 36.86L11.38 41ZM11.38 34.71L16.39 29.83L21.39 34.71L21.39 30.57L16.39 25.68L11.38 30.57L11.38 34.71Z" />
		</g>
	</g>
</svg>