<svg xmlns="http://www.w3.org/2000/svg" viewBox="0 0 92 64" width="92" height="64">
	<style>
		tspan { white-space:pre }
		.shp0 { fill: #f5c506 } 
	</style>
	<g id="mid_bar">
		<path id="Shape 2" class="shp0" d="M68.75 63L21.47 63C10.72 63 2 54.31 2 43.59C2 34.79 7.92 27.44 15.98 25.06C15.96 24.76 15.91 24.48 15.91 24.18C15.91 16.52 22.13 10.32 29.81 10.32C31.35 10.32 32.8 10.63 34.19 11.09C38.24 5.6 44.71 2 52.06 2C62.64 2 71.45 9.37 73.71 19.23C83.6 21.49 91 30.27 91 40.82C91 53.07 81.04 63 68.75 63ZM52.06 40.82L52.06 24.18L40.94 24.18L40.94 40.82L32.42 40.82L46.5 54.85L60.58 40.82L52.06 40.82Z" />
	</g>
</svg>